PathFileType	4	(X/Y/Z)	D:\TRACE\spotREDO_2-26-24\spot_Both_Motion_1_7-platform.trc
DataRate	CameraRate	NumFrames	NumMarkers	Units	OrigDataRate	OrigDataStartFrame	OrigNumFrames
100.00	100.00	      37	5	mm	100.00	1751	      7000
Frame#	Time	Left_Front			Right_Front			Left_Aft			Right_Aft			Post			
		X1	Y1	Z1	X2	Y2	Z2	X3	Y3	Z3	X4	Y4	Z4	X5	Y5	Z5	

1751	17.500	-694.05634	-14.87512	-578.54584	721.16229	-4.91336	-493.68921	-765.42188	15.98739	639.82373	804.74878	23.27153	643.77820	15.45343	604.00708	-997.60797	
1752	17.510	-693.12219	-14.37941	-578.54675	721.94897	-4.68556	-493.63379	-764.52570	15.47864	639.87024	805.95923	23.28183	644.00201	16.34227	604.55176	-997.24994	
1753	17.520	-692.24292	-14.31597	-578.52185	723.16528	-4.24232	-493.40857	-763.53784	15.03532	640.04065	806.68347	22.54290	643.88379	17.31201	605.19592	-996.51025	
1754	17.530	-691.06091	-13.80271	-578.47583	724.01141	-3.80903	-493.44626	-762.63080	14.68447	640.11890	807.62073	22.33775	644.18549	18.13349	605.83832	-995.63147	
1755	17.540	-690.26318	-13.54725	-578.28058	724.72235	-3.46260	-493.35120	-761.55212	14.36194	640.35687	808.87354	22.09723	644.22955	19.02924	606.63892	-995.01550	
1756	17.550	-689.30853	-13.17684	-578.18658	726.19189	-3.34730	-493.28528	-760.77216	13.86571	640.35876	809.84900	21.85572	644.38373	20.16590	607.14380	-994.50183	
1757	17.560	-688.10358	-12.91167	-577.97626	726.88019	-2.95779	-493.20331	-759.42236	13.65423	640.47424	811.07623	21.31721	644.55432	21.81402	607.89459	-993.47980	
1758	17.570	-687.26807	-12.69595	-577.84216	727.87146	-2.56646	-493.15686	-758.61865	13.14005	640.56616	811.55658	21.02073	644.54199	22.12356	608.50140	-993.31952	
1759	17.580	-686.41870	-12.05658	-577.71014	728.89209	-2.24047	-492.94901	-757.77167	12.80103	640.67151	812.62720	20.52740	644.66199	22.87016	609.22180	-992.91339	
1760	17.590	-685.33832	-11.80255	-577.43896	729.70911	-1.92905	-492.85052	-756.74170	12.50090	640.70917	813.49927	20.20374	644.89838	24.34287	609.76904	-992.36432	
1761	17.600	-684.46948	-11.30447	-577.52258	730.80261	-1.47851	-492.73846	-755.75409	12.03989	640.96735	814.45026	19.69636	645.17621	24.88796	610.62830	-992.28412	
1762	17.610	-683.37115	-10.74948	-577.42334	731.66302	-1.15031	-492.62250	-754.76117	11.63914	641.14282	815.36774	19.33142	645.17523	25.98833	611.18188	-992.02155	
1763	17.620	-682.67572	-10.46836	-577.46283	732.88947	-0.79225	-492.50571	-753.79376	11.19340	641.18689	816.13513	18.76993	645.23883	26.82806	611.70129	-991.79663	
1764	17.630	-681.42059	-10.06036	-577.43762	733.56720	-0.48082	-492.59317	-752.88116	10.69981	641.17297	817.28094	18.27053	645.31207	27.97837	612.52356	-991.25714	
1765	17.640	-680.58936	-9.76565	-577.18109	734.44501	-0.06141	-492.37851	-751.99426	10.28081	641.46423	818.29968	18.14491	645.47186	28.81004	613.20148	-990.77393	
1766	17.650	-679.64813	-9.35474	-576.96265	735.61920	0.41352	-492.22437	-751.12311	9.84572	641.55939	819.50427	17.70732	645.64966	29.79034	613.83929	-990.11353	
1767	17.660	-678.74567	-8.97059	-576.75751	736.42218	0.75675	-492.14398	-750.04767	9.49172	641.79773	820.17456	17.42619	645.73004	30.97038	614.56970	-989.21252	
1768	17.670	-677.61426	-8.74911	-576.77631	737.19910	0.95262	-492.20413	-749.08862	9.04925	641.91595	821.30969	16.80336	645.85956	31.56731	615.40399	-988.64722	
1769	17.680	-676.79706	-8.22064	-576.84247	738.40198	1.33732	-491.96396	-748.22693	8.52941	641.99481	821.86334	16.46123	645.80988	32.63667	615.90540	-987.89545	
1770	17.690	-675.78479	-7.71121	-576.61633	739.25909	1.71876	-491.83884	-747.17108	8.15378	641.91693	823.10529	15.90274	645.99213	33.37898	616.66498	-987.28180	
1771	17.700	-675.01117	-7.35939	-576.47412	740.31403	2.15795	-491.71414	-746.28674	7.80607	642.04883	824.04944	15.50664	646.16418	34.20631	617.49103	-986.73206	
1772	17.710	-673.80298	-6.82314	-576.40576	741.11377	2.42280	-491.58472	-745.52966	7.60917	642.08319	824.93799	15.04606	646.19708	35.80594	618.42334	-985.76105	
1773	17.720	-673.17218	-6.40062	-576.30127	742.17798	2.74407	-491.30231	-744.42279	6.80267	642.31494	825.84082	14.56792	646.23480	36.22520	618.86292	-985.40723	
1774	17.730	-672.21741	-5.75385	-576.31958	742.97546	3.09233	-491.32855	-743.42218	6.32204	642.38300	826.63684	14.14723	646.38354	37.03817	619.65613	-985.20398	
1775	17.740	-671.47070	-5.50770	-576.11975	743.20160	3.29623	-491.65778	-742.83344	5.86225	642.42395	827.71167	13.71600	646.58820	37.33873	620.53259	-984.94769	
1776	17.750	-670.45178	-5.16183	-576.01898	744.37781	3.71187	-491.60309	-741.93054	5.59056	642.66644	828.64282	13.59678	646.60376	38.56354	621.09503	-984.37183	
1777	17.760	-669.56750	-4.59662	-575.76196	745.32544	4.55686	-491.22516	-740.90637	5.09956	642.91095	829.46857	13.10952	646.56403	39.60849	621.82672	-984.06323	
1778	17.770	-668.51855	-4.45260	-575.75635	746.16571	4.76184	-491.02277	-739.97595	4.79214	642.97540	830.33826	12.72481	646.76874	40.67694	622.76965	-983.69415	
1779	17.780	-667.74158	-3.75971	-575.83978	747.13257	5.42491	-491.15985	-739.23816	4.36139	643.10626	831.27795	11.93910	646.96991	41.95107	623.28900	-982.71179	
1780	17.790	-666.94080	-3.35767	-575.58759	747.90448	5.81496	-491.01584	-738.21997	3.34650	643.31750	831.92920	11.51334	647.04498	42.52403	624.11029	-982.30542	
1781	17.800	-666.21588	-3.10784	-575.19403	748.75323	6.27016	-490.61563	-737.39728	3.12550	643.36530	832.89288	11.02725	647.32611	43.15027	624.81842	-981.56396	
1782	17.810	-665.31488	-2.35140	-575.22205	749.68671	6.59971	-490.73111	-736.79028	3.05482	643.34045	833.64417	10.62799	647.28217	44.16844	626.01617	-980.45410	
1783	17.820	-664.75763	-1.81443	-575.19116	750.51459	6.79032	-490.46869	-735.73834	2.11012	643.57800	834.40833	10.34005	647.47906	44.59827	626.64325	-980.04462	
1784	17.830	-663.81616	-1.18017	-574.93811	751.22955	7.30543	-490.38419	-734.82489	1.75308	643.69141	835.29730	9.64426	647.65247	46.06023	627.37720	-978.98474	
1785	17.840	-663.14624	-0.84172	-574.80194	751.88348	7.87337	-490.45621	-734.11279	1.43088	643.67719	836.04828	9.11458	647.85950	46.59998	628.17041	-978.42792	
1786	17.850	-662.08673	-0.45650	-574.64557	752.69531	8.34492	-490.18304	-733.28412	0.60840	643.91931	836.76489	8.74580	647.91870	47.46990	629.21417	-977.50635	
1787	17.860	-661.37561	-0.07553	-574.60956	753.57709	8.43261	-489.98312	-732.52679	0.11527	644.13416	837.64410	8.11505	648.00775	48.07795	629.89984	-976.98248	
